<svg id="Layer_1" data-name="Layer 1" xmlns="http://www.w3.org/2000/svg" viewBox="0 0 2749.39 1683.05"><path d="M334.1,1843.5c-114.35-58.65-153.08-262.16-61.76-511.42,67.47-184.16-75.79-341.41-84.44-557.33C159.27,59.85,1473.82,41.22,2306.18,411.92c919.88,409.66,655,1235,318.74,1431.58Z" transform="translate(-187.44 -173.45)" style="fill:#d6eef6"/><path d="M547.8,1416.36a66.4,66.4,0,0,0-12.77,1.23c-11.86-19.17-37.6-32.45-67.44-32.45a96.64,96.64,0,0,0-22.16,2.54c-16.07-20.11-45.26-33.55-78.6-33.55-39.68,0-73.47,19-86.27,45.67a78.32,78.32,0,0,0-26.81-5.91q-7.92,26.49-13.86,52.11h357.2C591.93,1429,571.83,1416.36,547.8,1416.36Z" transform="translate(-187.44 -173.45)" style="fill:#f0fbff;opacity:0.8"/><path d="M1777.47,416.51c-7.37-24.26-36.1-42.36-70.43-42.36a95.1,95.1,0,0,0-18.25,1.76c-17-27.38-53.72-46.36-96.37-46.36a138.63,138.63,0,0,0-31.67,3.62c-23-28.73-64.67-47.94-112.32-47.94-56.7,0-105,27.19-123.28,65.26a112.84,112.84,0,0,0-43.74-8.58c-49.7,0-90,30.45-90,68a53.65,53.65,0,0,0,.42,6.6Z" transform="translate(-187.44 -173.45)" style="fill:#f0fbff;opacity:0.8"/><path d="M2919.78,1233.09c-6-19.7-29.32-34.4-57.2-34.4a76.88,76.88,0,0,0-14.82,1.43c-13.77-22.24-43.64-37.65-78.28-37.65a112.42,112.42,0,0,0-25.72,2.94c-18.65-23.34-52.53-38.94-91.23-38.94-46.05,0-85.27,22.08-100.13,53a91.75,91.75,0,0,0-35.53-7c-40.37,0-73.09,24.72-73.09,55.22a43.21,43.21,0,0,0,.35,5.36Z" transform="translate(-187.44 -173.45)" style="fill:#f0fbff;opacity:0.8"/><path d="M1779,1176.14c-5.14-18.35-25.14-32.05-49.06-32.05a60.57,60.57,0,0,0-12.7,1.33c-11.81-20.72-37.42-35.08-67.12-35.08a89,89,0,0,0-22.05,2.74c-16-21.74-45-36.28-78.23-36.28-39.49,0-73.12,20.58-85.86,49.38a73.25,73.25,0,0,0-30.47-6.49c-34.61,0-62.66,23-62.66,51.46a41.27,41.27,0,0,0,.3,5Z" transform="translate(-187.44 -173.45)" style="fill:#f0fbff;opacity:0.8"/><path d="M314.56,573.72c4.94-16,24.16-28,47.14-28a64.67,64.67,0,0,1,12.21,1.16c11.35-18.07,36-30.59,64.51-30.59a94,94,0,0,1,21.19,2.39c15.36-19,43.28-31.64,75.17-31.64,38,0,70.27,18,82.51,43.07a76.55,76.55,0,0,1,29.28-5.66c33.26,0,60.22,20.09,60.22,44.87a34.8,34.8,0,0,1-.28,4.35Z" transform="translate(-187.44 -173.45)" style="fill:#f0fbff;opacity:0.8"/><path d="M215.21,1831.07l2648.3,2.27a11.56,11.56,0,0,1,11.52,11.58h0a11.56,11.56,0,0,1-11.54,11.58l-2648.3-2.27a11.56,11.56,0,0,1-11.52-11.58h0A11.56,11.56,0,0,1,215.21,1831.07Z" transform="translate(-187.44 -173.45)" style="fill:#6dabdb"/><polygon points="1808.6 915.59 1830.14 784.03 1852.56 804.93 2085.57 555.01 2151.49 616.47 1918.48 866.39 1938.25 884.83 1808.6 915.59" style="fill:#44cfab"/><path d="M2411.55,708.58c0,9.11,3.41,16.5,7.61,16.5s7.6-7.39,7.6-16.5-3.4-16.49-7.6-16.49S2411.55,699.47,2411.55,708.58Z" transform="translate(-187.44 -173.45)" style="fill:#f7a491"/><path d="M2339.9,1778.06c2-14.2,2.6-36,2.39-61.19H2392c-5.18,35.64-9.23,63.39-9.23,63.39l1.24,11.27,0,33.27h-108.8s23.09-10.35,55.4-30.8C2333.06,1792.49,2338.56,1787.67,2339.9,1778.06Z" transform="translate(-187.44 -173.45)" style="fill:#f7a491"/><path d="M2552,1769.7l-14.47-41.44h37.87c2,26.6,2.7,44.55,2.7,44.55l9.63,27.24,9.77,32.38s-32.2,8.29-49.09-1l1.87-32.22Z" transform="translate(-187.44 -173.45)" style="fill:#f7a491"/><path d="M2355.62,869.14c13.12-17.95,67.3-69.94,73.31-69.83,17.55.31,75.13.33,86.39,6.05l-.54,99c-1.84,8.31-41.59,137.72-39.28,166l-.28.27c-33.32,32.17-85.86,29.65-116.33-5.6h0s.13-39.25-4.57-75.06C2347,933.88,2323,913.73,2355.62,869.14Z" transform="translate(-187.44 -173.45)" style="fill:#f7cc7f"/><path d="M2446.59,743.59s-1.52,36.52,1.76,50.36,7.65,14.89-20.5,19.11c-11.06,1.65-21.73,4.12-21.73,4.12s2.89-20.33,3.33-28.91c.72-14.14-3.26-57.78-3.26-57.78Z" transform="translate(-187.44 -173.45)" style="fill:#f7a491"/><path d="M2425.15,761.76a50.33,50.33,0,0,1-16.2,5.75c-.95-17.24-2.76-37-2.76-37l38.54,12.5A50.52,50.52,0,0,1,2425.15,761.76Z" transform="translate(-187.44 -173.45)" style="fill:#f47458"/><path d="M2550.3,1799c14.86,6.62,30.85,2.63,37.29.51l2.13,5.76,8.2,27.32s-32.61,8.09-49.5-1.24Z" transform="translate(-187.44 -173.45)" style="fill:#e25a44"/><path d="M2385.2,1833.06H2272.09c-4.19-.38-5.21-3.8-3.76-5.91,3-4.34,16.18-7.52,31-14.43,26,2.74,80.6-15.22,84.71-21.26C2386.43,1803.55,2387.52,1832.54,2385.2,1833.06Z" transform="translate(-187.44 -173.45)" style="fill:#e25a44"/><path d="M2393.76,1072.27l66.29,471.56,60.37,217.44h65.68s-15.24-175.18-47.92-237.24c0,0-14.26-166.29-28.54-268-2.13-15.2,8.43-54.66,5.68-64.85-21.17-78.39-39.82-120.82-39.82-120.82Z" transform="translate(-187.44 -173.45)" style="fill:#355389"/><path d="M2434.75,1276.16l-15.34,181.15s15.68,103.53,4.91,172.22-25,131.74-25,131.74h-60.37l-12-342.1s-23.2-185.87-15.17-236.28S2358.89,1065,2358.89,1065l95,4.34s25.75,92.27,21.4,123.25C2472,1215.62,2434.75,1276.16,2434.75,1276.16Z" transform="translate(-187.44 -173.45)" style="fill:#466eb6"/><path d="M2528.12,965.47c71.77-21.54,52.55-84.81,52.15-82.41.21-1.95,7-9.92,10.31-16.73,13.94-28.36-4.45-62.53-25.51-74.34,14-36.08.1-70.69-26.2-85.11a105.73,105.73,0,0,1-33.42-29.6c-19.91-26.57-56.12-53.31-99.66-44.58-43.09,11,14.59,36,8.88,77.42-2.89,21,5.43,18,18.41,34.89-18.69,32.84-7.89,88,20.76,113C2439.8,917.15,2454.88,987.45,2528.12,965.47Z" transform="translate(-187.44 -173.45)" style="fill:#184655"/><path d="M2474.79,676.24c8.48,35-37.41,60.35-73.75,61.28-23.61.6-34.47-1.82-38.29-26.71-6.19-40.36,10.44-65,33.74-75.15C2426.56,622.52,2467.79,647.39,2474.79,676.24Z" transform="translate(-187.44 -173.45)" style="fill:#184655"/><path d="M2421.42,652.71s16,5.38,24.49,21.51,4.28,67.78-31.14,84.82-51.72-21.65-49.15-50.2S2378.45,643,2421.42,652.71Z" transform="translate(-187.44 -173.45)" style="fill:#f7a491"/><path d="M2399.29,732.22l-25.14-.38s.43,9.73,11.48,10.22C2399.11,742.67,2399.29,732.22,2399.29,732.22Z" transform="translate(-187.44 -173.45)" style="fill:#fff"/><path d="M2458.5,713.31c5.24-26.7,3.19-46.93-15.77-56.7s-35.18-19.45-52.15-1.89l-3.84,2.16s32,8.85,33.82,25.86,18.81,37.23,16.19,45.58-5.65,25-5.65,25l7-5.77S2453.26,740,2458.5,713.31Z" transform="translate(-187.44 -173.45)" style="fill:#184655"/><path d="M2425.49,703.09c-2.64,7.37-.64,14.77,4.47,16.53s11.4-2.79,14-10.16.65-14.78-4.46-16.53S2428.14,695.72,2425.49,703.09Z" transform="translate(-187.44 -173.45)" style="fill:#f7a491"/><path d="M2152.86,917.34c-1.79-5.13,23.17-9.27,24.5-14.47s-31.52-5.59-32.69-10.15c-2.17-8.4,36-1.77,35.24-5.7s-39.77-12.71-35.55-19.45,39.51,13.32,40.58,8.75-34.5-15.71-33.86-25.74c.34-5.36,58.37,26.74,65.1,23.82s-7.24-28.11-1.88-31.85,20.74,51.21,24.44,53,82.09,46.58,110,53.7c3.39-9.35,10.71-21.95,13.7-30.79,15.66,11.14,27.28,16.74,43.43,26.89-11.7,29.33-28.36,61.45-36.51,65.13-24.83,11.22-120.85-68.42-140-82s-30.16-9.22-43.13-13.53S2154.65,922.48,2152.86,917.34Z" transform="translate(-187.44 -173.45)" style="fill:#f7a491"/><path d="M2442.52,861.42c7.42,30.55-32.15,98.64-32.15,98.64s-56.36-26.59-66.27-38c0,0,38.29-66.08,40.8-70.1,11.37-18.19,26.79-18.21,36.85-17C2429.82,835.84,2442.52,861.42,2442.52,861.42Z" transform="translate(-187.44 -173.45)" style="fill:#eab765"/><path d="M313.78,970.4c-1.76-5,22.77-9.12,24.08-14.22s-31-5.5-32.13-10c-2.13-8.26,35.38-1.74,34.64-5.6s-39.08-12.49-34.94-19.11,38.83,13.09,39.88,8.6S311.4,914.65,312,904.79c.33-5.26,57.37,26.27,64,23.41s-7.11-27.62-1.85-31.3,20.38,50.33,24,52.13,80.68,45.77,108.09,52.76c3.33-9.18,42.59-66,45.53-74.71,15.38,10.95,31.16,12.45,47,22.43-11.5,28.83-64.3,108.84-72.31,112.46-24.4,11-118.76-67.24-137.6-80.63s-29.64-9.06-42.38-13.3S315.54,975.44,313.78,970.4Z" transform="translate(-187.44 -173.45)" style="fill:#f7a491"/><path d="M837.34,761.59c-14.13-37.63-51-60.41-89.44-53.37-11.8-19-31.45-33.16-52.84-37.74-42.19-9-99.24,7.62-97.7,52.3-16.36,30-17,72.91,8,95.74-8.71,40.34,29.08,79.37,78.21,77.94,17.11,28.22,49.7,46.36,82.12,42.49,7.78-.93,19.64-2.87,21.61-2.38-2.47-.46,52.06,41.35,98.28-23C932.78,848,899.65,768.59,837.34,761.59Z" transform="translate(-187.44 -173.45)" style="fill:#184655"/><path d="M704.9,1124.46c1.41.58-18.54,26.28-38,44.46-15.66,19.65-30.35,42.92-35.41,68.29-7.69,38.57-1.29,229.14-8,242.7-57.48,56.19-99.1,197.22-110.79,240.25A46,46,0,0,1,499.48,1742h0L502,1790.6l28.56,26.31s-6.35-39.62,6.35-69c0,0,144.71-219.16,153.3-235.91,16.41-47.71,76.18-292.14,76.18-292.14l13.88-56.18S705,1124.51,704.9,1124.46Z" transform="translate(-187.44 -173.45)" style="fill:#f7a491"/><path d="M468.19,1757.62s18.08,27.86,19.62,38.71,11.17,35.48,21.82,37c2.42.35,43.83,3.39,43.53-1.79-.23-3.95-15.22-9.6-22.18-14.4-12-8.32-30.71-76-30.71-76S469,1749,468.19,1757.62Z" transform="translate(-187.44 -173.45)" style="fill:#355389"/><path d="M711,826.81s60.56-108.92,75.3-132.07S839.36,579.57,840.73,576s-26.43-47.17-20.22-48.66,13.07,23,19.69,20,19.32-22.34,23.08-20.39,8.5,0,10.57,2.84,7,18.77.82,30.24-3.59,7-8,28.19-11,98.09-33.47,136.44-72,123.21-72,123.21Z" transform="translate(-187.44 -173.45)" style="fill:#f79c8d"/><path d="M828.59,1208.92s93.22,199.3,93.81,234.34c.51,30-16.29,198.55-11.6,338.89.17,5.07,6.58,11.8,15.93,16.08,5.25,2.41,30.63,13.75,30.63,13.75l3.49,9.08-87.42-6.23L872.19,1791S837.4,1581,840.94,1521.66c.56-9.33,5.09-65.17,5.09-65.17l-105.12-203L807,1166.65Z" transform="translate(-187.44 -173.45)" style="fill:#f7a491"/><path d="M614.94,1448.33s0,0,0,0Z" transform="translate(-187.44 -173.45)" style="fill:#f47458"/><path d="M748.27,885.77c2.5-15.32,26.22-53.67,30-63.07,0,0-27.49-34.94-49.81-32.3,0,0-30,49.72-47,51.4s-77,4.27-87.54,10.65-55.12,74.87-55.12,74.87,40.08,40.94,56.21,40.85c0,0,8.57-16.88,12-20.57,2.43,7.84,39.78,128.86,39.73,156.26l.28.24a78.44,78.44,0,0,0,112.79-14.5h0s-3.17-37.72-1.37-72.51C761.16,962.59,772.19,933.63,748.27,885.77Z" transform="translate(-187.44 -173.45)" style="fill:#f7cc7f"/><path d="M942.67,1353.91,759.72,1089.6c-11.29,4.57-22,8.55-34,10.88-26.23,5.06-52.5,4.25-79.06,3.38a21.28,21.28,0,0,1-.16,2.6c-3,21.79-32,55.53-37.91,121.65-6.77,75.06-2.68,205.43-.39,214C729.82,1427.32,908.15,1390.13,942.67,1353.91Z" transform="translate(-187.44 -173.45)" style="fill:#466eb6"/><path d="M650.53,797.73s6.43,34.66,5.14,48.32,4.91,57.73,32.69,57.87,5.28-56,2.66-69.4-3.23-54.86-3.23-54.86Z" transform="translate(-187.44 -173.45)" style="fill:#f7a491"/><path d="M688.36,800.46c-.43-11.34-.57-20.8-.57-20.8l-37.26,18.07s1.31,7.09,2.63,16.11C669.47,817.26,681.29,811,688.36,800.46Z" transform="translate(-187.44 -173.45)" style="fill:#f47458"/><path d="M636.91,702.09a47.62,47.62,0,0,0-19.61,26.28c-5.25,18,.73,64.36,37.81,75.55s53.16-25.54,45.52-54.25S676.38,684.58,636.91,702.09Z" transform="translate(-187.44 -173.45)" style="fill:#f7a491"/><path d="M705.27,738.54c-.73,7.71-4.81,13.61-9.13,13.16s-7.22-7.05-6.49-14.76,4.81-13.61,9.12-13.17S706,730.82,705.27,738.54Z" transform="translate(-187.44 -173.45)" style="fill:#f7a491"/><path d="M628,768.26c4.36,6.75,4.34,14.7,0,17.76s-11.45.09-15.81-6.65-4.34-14.69,0-17.76S623.62,761.52,628,768.26Z" transform="translate(-187.44 -173.45)" style="fill:#f7a491"/><path d="M873.14,1831.47H983.57c4.09-.36,5.08-3.66,3.67-5.69-2.92-4.19-15.8-7.26-30.28-13.92-25.4,2.64-80.71-14.72-84.72-20.54C869.92,1803,870.87,1831,873.14,1831.47Z" transform="translate(-187.44 -173.45)" style="fill:#355389"/><path d="M655.82,775.93l23.7-7s2.15,9.32-8.18,12.7C658.74,785.78,655.82,775.93,655.82,775.93Z" transform="translate(-187.44 -173.45)" style="fill:#fff"/><polygon points="428.04 275.94 494.05 389.11 507.27 362.06 808.95 509.53 847.84 429.96 546.17 282.49 557.84 258.62 428.04 275.94" style="fill:#44cfab"/><path d="M882.74,528.85a12.35,12.35,0,0,0-9.62,2.58C859.25,542,856,544.15,853,543.6c-5.45-1,11.11-17.68,10.32-18.3-2.71-2.12-21.5,20.33-26.12,17.52-1.75-1.06-1.55-3.44,4.25-11.66,4.58-6.49,12.12-13,9.86-14s-21.87,26.58-24,21.24,9.09-25.84,19.18-29.82S879.11,515.69,882.74,528.85Z" transform="translate(-187.44 -173.45)" style="fill:#f79c8d"/><path d="M1302.48,828.1c14,14.61,11.25,16.66,13.09,18.48,2.18,2.15,40.82,8.25,40.82,8.25s113.77,18.83,119.95,19.61l115-36.18L1623,896.63s-126,35.66-132.84,36.25-157.8-44.9-171.2-48.42c0,0-17.45,2.4-28.45,3.51s-21.82-3.31-25-3.53c-.46,0-16.92,5-23.19-7-.83-1.58,1.46-5.71,1.46-5.71s21.17,4.89,21.25,3c0-1.49-11.66-3.39-23.47-8.54-3-1.33-.65-8.9,2.56-7.42,3.47,1.6,7.14,1.81,10.24,2.65,6.17,1.67,10.65,3,10.57,2.65s1.35-1-1.84-2.57c-3.83-1.82-12.75-3.68-18.19-6.85-3.09-1.8,4.06-6.87,4.06-6.87s15.53,4,16.09,1.55c.24-1-2.56-13.81-2.56-13.81s28.12,8,28.47,5.63-.9-8.82-2.48-10-5.5-1.61-7.09-2.78a5.67,5.67,0,0,1-1.57-6.52c1.16-2.3,10.78.07,10.78.07S1298.44,823.88,1302.48,828.1Z" transform="translate(-187.44 -173.45)" style="fill:#f48c7f"/><path d="M1565.86,1756.85s-.61,40.88-.59,41c.86,5.19,7.26,18,7.26,22.73,0,17.72-80.55-15-62.5-22.9,1.64-.71,10.2-6.09,10.74-12.12.82-9.3,2.92-28.1,2.92-28.1Z" transform="translate(-187.44 -173.45)" style="fill:#f7a491"/><path d="M1510.23,1797.47s18.91,5.42,28.6,6.78,22.45-10.06,29.3-7c7.54,3.4,6.78,36.81,6.78,36.81s-96.69,1.38-129.45-.48C1433.63,1832.93,1471.58,1810.1,1510.23,1797.47Z" transform="translate(-187.44 -173.45)" style="fill:#b75742"/><path d="M1745.08,1756.85s2.37,40.88,2.38,41c.87,5.19,4.29,18,4.29,22.73,0,17.72-80.54-15-62.49-22.9,1.63-.71,12.73-10.1,13.27-16.13.83-9.3.39-24.09.39-24.09Z" transform="translate(-187.44 -173.45)" style="fill:#f7a491"/><path d="M1689.46,1797.47s18.91,5.42,28.59,6.78,22.46-10.06,29.31-7c7.54,3.4,7.34,36.33,7.34,36.33s-108,1.16-134.33,0C1608.53,1833.08,1650.8,1810.1,1689.46,1797.47Z" transform="translate(-187.44 -173.45)" style="fill:#b75742"/><path d="M1617.45,1165.73l-34.06,14.38L1511.77,1515l2.9,251.08,57.42,1.31s26.71-219.63,26.71-236.66,123.7-297.86,123.7-297.86Z" transform="translate(-187.44 -173.45)" style="fill:#355389"/><path d="M1643.73,1184.16s25.09,258,25.09,301.55,20.34,287,20.34,287l57.55-.33s4.16-74.2,10.33-183.37c1-17.1-1.25-51.6,0-69.3,9-127.3,26.66-247.15,18.2-294.65-1.36-7.65-3.92-27.64-8.9-32.69C1728.65,1154.14,1643.73,1184.16,1643.73,1184.16Z" transform="translate(-187.44 -173.45)" style="fill:#466eb6"/><path d="M1525.78,852.19,1551,927.28l75.32-25.11s87.11-66.08,84.23-69.41c-8.09-9.34-53.2-33.9-68.7-28.76C1610.47,814.38,1525.78,852.19,1525.78,852.19Z" transform="translate(-187.44 -173.45)" style="fill:#f47458"/><path d="M1738.53,798.26s39.72,5.4,50.17,12.92c11.77,8.46,24.84,27.4,24.84,27.4s-48.76,225.69-48.85,263.66c-.07,29.39,10.56,101.53,10.56,101.53s-147.36,9.1-203.17-12.47c0,0,17.62-85.79,17.62-108.32s21.08-227.4,25.88-241.71c4.36-13,12.31-36.3,39.23-42.06S1738.53,798.26,1738.53,798.26Z" transform="translate(-187.44 -173.45)" style="fill:#f47458"/><path d="M1727.68,737.49l9.84,63s-35.91,75-57.34,68.53c-18-5.46-6.92-71.85-6.92-71.85s9.8-35.66,6.86-53.5S1727.68,737.49,1727.68,737.49Z" transform="translate(-187.44 -173.45)" style="fill:#f7a491"/><path d="M1680.12,743.69c-2.93-17.84,47.56-6.2,47.56-6.2l.82,5.23a28.7,28.7,0,0,1-5.48,8.78c-11.28,11.81-28.91,18.9-44.15,19.44C1680.39,761.32,1681.33,751,1680.12,743.69Z" transform="translate(-187.44 -173.45)" style="fill:#f47458"/><path d="M1736,648.34c1.43-.51,11.44,71.77-7.56,91.66s-56,26.4-69.31,10.73c-14.69-17.32-13.95-95,15.6-115.47S1736,648.34,1736,648.34Z" transform="translate(-187.44 -173.45)" style="fill:#f7a491"/><path d="M1685.94,596.6A82.59,82.59,0,0,1,1729,620.48c10.36,1.2,24.46,6.77,39,30.21,17.89,28.81,4.68,60.74-16.15,76.4s-20.55,33.68-20.55,33.68l-3.29-9.28a51,51,0,0,1-2.6-22,42.15,42.15,0,0,1,3.36-13.26c5-10.46-10.76-17.41-15.18-26.11-3.41-6.7-3.57-22-8.93-33.11l-6.41-8.46s-14.78-11.19-29.24-8S1656.64,590.79,1685.94,596.6Z" transform="translate(-187.44 -173.45)" style="fill:#184655"/><path d="M1714.58,702.94c-.15,8.82,4,16,9.21,16.13s9.6-7,9.75-15.81-4-16-9.2-16.13S1714.73,694.12,1714.58,702.94Z" transform="translate(-187.44 -173.45)" style="fill:#f7a491"/><path d="M1798.71,827.32c-13.36-.38-25.18,85.92-16.71,94.43s10.09,114.81,10.09,114.81L1666,1033.49l0,0c-2.46-1.62-28.87-19-32.65-22.78-4-4-23.2-2-28.3,3.49s11.32,1,15.85,4-3.4,10.45-3.4,10.45-31.94,4.54-38.17-1.93-22.87-17.43-25.13-11c-1.17,3.34,7.41,13.46,12.25,17.7-6-4.42-13.26-9.11-15.74-8.29-4.53,1.49-2.64,7.13-.18,8.79s27.81,20.62,31.77,21.94,62.86,2.73,73,4.94c0,0,166.25,37.06,175.7,34.75,8.29-2,16.58-54.13,16.58-94S1840.47,828.5,1798.71,827.32Z" transform="translate(-187.44 -173.45)" style="fill:#f7a491"/><path d="M1781.38,807.63s23.25,5.24,47.28,31.67c21.84,24,35.61,158.64,35.61,158.64l-75.44,11.94-6-65.11L1762.65,915Z" transform="translate(-187.44 -173.45)" style="fill:#f47458"/><polygon points="1143.03 425.08 1052.2 522.67 1082.44 527.6 1027.5 864.84 1116.45 879.34 1171.4 542.09 1198.08 546.44 1143.03 425.08" style="fill:#44cfab"/><path d="M1241.35,876.15a12.57,12.57,0,0,1,7.29-7c16.53-6.54,20.08-8.29,21.13-11.13,2-5.3-21.24.42-21.36-.59-.44-3.48,29-8.1,29-13.61,0-2.08-2.19-3.15-12.4-2.4-8.06.6-17.73,3.74-17.41,1.26s34.65-5.16,31.09-9.8-27.3-5.61-36.06,1.11S1231.77,866.09,1241.35,876.15Z" transform="translate(-187.44 -173.45)" style="fill:#f48c7f"/></svg>